/* XPM */
static char * C:\Users\ml\Documents\Github\Hotchain_final_1_0\Hotchain\share\pixmaps\bitcoin32_xpm[] = {
"32 32 3 1",
" 	c None",
".	c #060608",
"+	c #C0111C",
"                                ",
"                                ",
"                                ",
"                                ",
"                                ",
"              . .               ",
"             .. .....           ",
"          ...      . .          ",
"          . .      ...          ",
"          ..        .           ",
"       ...           ....       ",
"      ......       ......       ",
"      ... ...      ... ...      ",
"     .......       .........    ",
"   .........       ....    ..   ",
"  ..      ...      ..       ..  ",
" ..         .     ..         .. ",
" .          ..    ..          . ",
" .           .    .           ..",
"..    ++     .    .    +++    ..",
"..    ++     .    .     +     ..",
" .           .    .           . ",
" .          ..    ..         .. ",
" ..         .      ..        .  ",
"  ..       ..       ..     ...  ",
"   ..    ...         ..... .    ",
"    . ....             ...      ",
"                                ",
"                                ",
"                                ",
"                                ",
"                                "};
