/* XPM */
static char * C:\Users\ml\Documents\Github\Hotchain_final_1_0\Hotchain\share\pixmaps\bitcoin16_xpm[] = {
"16 16 3 1",
" 	c None",
".	c #060608",
"+	c #C0111C",
"                ",
"                ",
"                ",
"      ....      ",
"     .    .     ",
"   ...    ..    ",
"   ...   ....   ",
" ..  .    .   . ",
"      .  .     .",
".     .  .     .",
".  +  .  .     .",
"      .  .      ",
" .   .    ..  . ",
"   .            ",
"                ",
"                "};
